<?xml version="1.0" encoding="utf-8"?>
<!-- Generator: Adobe Illustrator 24.3.0, SVG Export Plug-In . SVG Version: 6.00 Build 0)  -->
<svg version="1.1" xmlns="http://www.w3.org/2000/svg" xmlns:xlink="http://www.w3.org/1999/xlink" x="0px" y="0px"
	 viewBox="0 0 500 500" style="enable-background:new 0 0 500 500;" xml:space="preserve">
<style type="text/css">
	.st0{display:none;}
	.st1{display:inline;}
	.st2{display:inline;fill-rule:evenodd;clip-rule:evenodd;}
	.st3{fill:#FC6666;}
</style>
<g id="Layer_1" class="st0">
</g>
<g id="Layer_2">
	<path class="st3" d="M387.6,440c-9.1,0-17.2-1.8-24.3-5.4c-7-3.7-12.5-8.8-16.4-15.1c-3.9-6.5-5.9-13.8-5.9-21.9
		c0-8.3,2-15.7,6.1-22.2c4.1-6.5,9.5-11.5,16.4-15c6.9-3.5,14.6-5.3,23-5.3c8.1,0,15,1.8,20.7,5.4c5.8,3.5,10.1,8.3,13,14.5
		c2.8,6,4.3,12.8,4.3,20.4c0,2-0.1,3.4-0.3,4.3l-49.3,6.4c1.3,3.8,3.5,6.6,6.4,8.4c3,1.6,6.9,2.5,11.7,2.5c7.5,0,15.5-1.9,24.2-5.8
		l4.1,22C411,437.7,399.8,440,387.6,440z M399,385.4c-1.8-6.9-5.9-10.4-12.5-10.4c-3.9,0-7.1,1.5-9.4,4.4c-2.3,3-3.5,6.8-3.6,11.5
		L399,385.4z M231.5,357.5H265v17c6.5-12.9,16.7-19.4,30.7-19.4c10.7,0,19,3.8,25.1,11.5c6.1,7.6,9.2,18.1,9.2,31.6V440H295v-45.3
		c0-4.8-1.1-8.5-3.2-11c-2-2.6-4.8-3.8-8.5-3.8c-2.7,0-5.3,0.9-7.9,2.7c-2.6,1.7-4.7,4.1-6.3,7.4c-1.6,3.2-2.3,6.9-2.3,11V440h-35.3
		V357.5z M198.7,440c-9.3,0-16.6-3-21.8-9c-5.2-6-7.8-14.2-7.8-24.5v-51.3h35.3V405c0,2.6,0.7,4.6,2,6c1.4,1.3,3.3,2,5.5,2
		c2.2,0,4.5-0.7,6.8-2l1.8,23.2c-2.4,1.9-5.7,3.3-9.7,4.3C207,439.5,202.9,440,198.7,440z M267.9,91.4h33.9v17.2
		c3.8-6.6,8.1-11.5,13-14.7c4.9-3.3,10.8-4.9,17.5-4.9c6.6,0,12.4,1.7,17.2,5.1c4.9,3.3,8.7,7.7,11.1,13.3
		c7.2-12.3,17.6-18.4,31.4-18.4c6.5,0,12.2,1.7,17,5.2c4.9,3.5,8.8,8.5,11.5,15.2c2.7,6.5,4,14.2,4,23.1v42.1h-35.6v-42.1
		c0-5.7-1-10.1-3-13c-1.9-2.9-4.6-4.4-8.1-4.4c-3.8,0-7.1,1.6-9.9,4.9c-2.7,3.3-4,7.2-4,11.8v42.8h-35.2v-42.1c0-5.7-1-10.1-3-13
		c-1.9-2.9-4.7-4.4-8.3-4.4c-3.8,0-7.1,1.6-9.8,4.9c-2.7,3.3-4,7.2-4,11.8v42.8h-35.6V91.4z M193.8,176c-7.1,0-13.7-1.9-19.9-5.6
		c-6.1-3.8-11-8.9-14.7-15.4c-3.7-6.5-5.6-13.8-5.6-21.7c0-7.8,1.9-14.9,5.6-21.3c3.7-6.4,8.7-11.4,14.9-15
		c6.2-3.6,12.8-5.4,19.8-5.4c5.7,0,10.9,1.6,15.7,4.7c4.9,3.2,8.6,7.9,11.1,14.2v-19h34.3v83.1h-34.3v-15.2
		C215.1,170.5,206.2,176,193.8,176z M204.4,150.2c4.4,0,8.1-1.5,11.1-4.6c3.2-3.2,4.9-6.9,5.1-11.1v-1.3c-0.2-4.4-2-8.1-5.2-11.1
		c-3.2-3.1-6.8-4.6-11-4.6c-4.6,0-8.5,1.6-11.8,4.9c-3.2,3.2-4.7,7-4.7,11.4c0,4.6,1.6,8.4,4.9,11.6
		C196.1,148.6,199.9,150.2,204.4,150.2z M75.5,60H114v114.7H75.5V60z M168.8,187.4H75.5V440h81.2v-96.2h15.8c3.7,0,7.5,0,11.3,0.1
		c19,0.2,39.4,0.5,54.2-5c18.1-6.9,26.1-11.6,36.4-24.1c10.5-12.5,15.8-27.1,15.8-43.7c0-26.4-10.7-47-32-61.7
		C237.2,194.7,207.4,187.4,168.8,187.4z M186.3,326.9c-5.8,0-10.8-1.8-14.9-5.4c-4-3.7-5.9-8.2-5.9-13.6s2.1-9.8,6.3-13.4
		c4.2-3.6,9-5.4,14.5-5.4c5.7,0,10.6,1.9,14.7,5.6c4.2,3.7,6.3,8.1,6.3,13.2c0,5.4-2.1,10-6.3,13.6
		C196.8,325.1,191.9,326.9,186.3,326.9z"/>
</g>
</svg>
